<svg width="27" height="23" viewBox="0 0 27 23" fill="none" xmlns="http://www.w3.org/2000/svg">
<mask id="path-1-inside-1_206_39" fill="white">
<path fill-rule="evenodd" clip-rule="evenodd" d="M1.86403 9.74664C8.86052 6.69839 13.5259 4.68879 15.8603 3.71786C22.5254 0.945634 23.9103 0.464069 24.813 0.448168C25.0115 0.44467 25.4554 0.493874 25.743 0.727199C25.9858 0.924215 26.0526 1.19036 26.0846 1.37715C26.1165 1.56394 26.1563 1.98946 26.1247 2.32195C25.7635 6.11691 24.2007 15.3263 23.4056 19.5767C23.0692 21.3752 22.4067 21.9783 21.7654 22.0373C20.3717 22.1655 19.3134 21.1162 17.9635 20.2313C15.8512 18.8467 14.6578 17.9847 12.6075 16.6336C10.2379 15.0721 11.774 14.2139 13.1244 12.8113C13.4778 12.4442 19.6186 6.8587 19.7374 6.35201C19.7523 6.28864 19.7661 6.05242 19.6258 5.92769C19.4854 5.80296 19.2783 5.84561 19.1289 5.87954C18.917 5.92762 15.5426 8.158 9.00553 12.5707C8.0477 13.2284 7.18013 13.5489 6.40282 13.5321C5.5459 13.5135 3.89752 13.0475 2.67212 12.6492C1.16912 12.1606 -0.0254392 11.9023 0.0785799 11.0726C0.132759 10.6404 0.727909 10.1984 1.86403 9.74664Z"/>
</mask>
<path d="M1.86403 9.74664L2.41831 11.1405L2.44089 11.1315L2.46316 11.1218L1.86403 9.74664ZM15.8603 3.71786L16.4364 5.10283L15.8603 3.71786ZM24.813 0.448168L24.7866 -1.0516H24.7866L24.813 0.448168ZM25.743 0.727199L26.6881 -0.437581V-0.437581L25.743 0.727199ZM26.0846 1.37715L24.606 1.63018V1.63018L26.0846 1.37715ZM26.1247 2.32195L27.6179 2.46407V2.46407L26.1247 2.32195ZM23.4056 19.5767L24.88 19.8525L23.4056 19.5767ZM21.7654 22.0373L21.628 20.5436L21.7654 22.0373ZM17.9635 20.2313L17.1411 21.4858L17.9635 20.2313ZM12.6075 16.6336L11.7821 17.8861L12.6075 16.6336ZM13.1244 12.8113L14.205 13.8516L13.1244 12.8113ZM19.7374 6.35201L21.1978 6.69456V6.69456L19.7374 6.35201ZM19.1289 5.87954L19.4609 7.34233L19.1289 5.87954ZM9.00553 12.5707L8.16627 11.3274L8.15642 11.3341L9.00553 12.5707ZM6.40282 13.5321L6.37042 15.0317L6.40282 13.5321ZM2.67212 12.6492L3.13583 11.2227L2.67212 12.6492ZM0.0785799 11.0726L1.56693 11.2592L0.0785799 11.0726ZM2.46316 11.1218C9.46162 8.07268 14.1155 6.06814 16.4364 5.10283L15.2842 2.33288C12.9364 3.30944 8.25942 5.3241 1.2649 8.37149L2.46316 11.1218ZM16.4364 5.10283C19.7743 3.71445 21.7549 2.91456 23.0092 2.45943C24.2893 1.99491 24.6576 1.95114 24.8394 1.94793L24.7866 -1.0516C24.0657 -1.0389 23.2902 -0.833943 21.9859 -0.360643C20.6557 0.122033 18.6113 0.949041 15.2842 2.33288L16.4364 5.10283ZM24.8394 1.94793C24.8293 1.94811 24.8259 1.94785 24.8288 1.94798C24.8313 1.9481 24.837 1.94844 24.8451 1.94929C24.8624 1.95111 24.8808 1.95416 24.896 1.95782C24.9121 1.96166 24.9132 1.96337 24.9015 1.95823C24.8949 1.95534 24.8824 1.94944 24.8654 1.93939C24.8484 1.92933 24.825 1.91402 24.7978 1.89198L26.6881 -0.437581C26.306 -0.747635 25.8857 -0.890178 25.5931 -0.960068C25.2911 -1.03223 25.004 -1.05543 24.7866 -1.0516L24.8394 1.94793ZM24.7978 1.89198C24.7058 1.81731 24.6506 1.72922 24.6228 1.66674C24.5997 1.61484 24.5987 1.587 24.606 1.63018L27.5631 1.12412C27.5151 0.843768 27.3688 0.114775 26.6881 -0.437581L24.7978 1.89198ZM24.606 1.63018C24.6107 1.65766 24.6235 1.75402 24.631 1.88227C24.6386 2.01213 24.6373 2.11827 24.6314 2.17983L27.6179 2.46407C27.6658 1.961 27.6097 1.39642 27.5631 1.12411L24.606 1.63018ZM24.6314 2.17983C24.2775 5.89841 22.7272 15.0452 21.9312 19.3009L24.88 19.8525C25.6741 15.6074 27.2495 6.33541 27.6179 2.46407L24.6314 2.17983ZM21.9312 19.3009C21.7857 20.0786 21.5974 20.4295 21.5008 20.5581C21.435 20.6455 21.4762 20.5575 21.628 20.5436L21.9029 23.531C23.6193 23.373 24.5169 21.7939 24.88 19.8525L21.9312 19.3009ZM21.628 20.5436C21.3736 20.567 21.0843 20.5008 20.6078 20.2209C20.3652 20.0784 20.1092 19.9018 19.7997 19.682C19.505 19.4726 19.1536 19.2179 18.7858 18.9768L17.1411 21.4858C17.4483 21.6872 17.7354 21.8955 18.0623 22.1277C18.3745 22.3495 18.7232 22.5931 19.0882 22.8076C19.8268 23.2414 20.7635 23.6358 21.9029 23.531L21.628 20.5436ZM18.7858 18.9768C17.7413 18.2922 16.924 17.7367 16.1065 17.18C15.2888 16.6233 14.4689 16.0638 13.4328 15.3811L11.7821 17.8861C12.7964 18.5545 13.5983 19.1016 14.418 19.6597C15.2378 20.218 16.0733 20.7859 17.1411 21.4858L18.7858 18.9768ZM13.4328 15.3811C12.9188 15.0423 12.8215 14.8674 12.8283 14.8805C12.8426 14.9079 12.8722 14.9826 12.8735 15.0884C12.8748 15.1895 12.8495 15.2541 12.8446 15.2654C12.8428 15.2696 12.8587 15.2331 12.9244 15.1491C12.9894 15.066 13.081 14.9639 13.2106 14.832C13.3414 14.6989 13.4848 14.5615 13.6588 14.3936C13.8261 14.2322 14.0153 14.0487 14.205 13.8516L12.0438 11.7709C11.8959 11.9245 11.7417 12.0746 11.5758 12.2347C11.4166 12.3883 11.2369 12.5603 11.0709 12.7292C10.7619 13.0437 10.3442 13.4974 10.0973 14.0603C9.80534 14.7259 9.76931 15.5036 10.169 16.2691C10.5121 16.9262 11.1114 17.4441 11.7821 17.8861L13.4328 15.3811ZM14.205 13.8516C14.1998 13.857 14.2197 13.8368 14.2887 13.7713C14.3488 13.7142 14.4296 13.6383 14.5296 13.5448C14.7296 13.3578 14.9968 13.1094 15.3114 12.817C15.9386 12.2339 16.7469 11.4818 17.5488 10.7245C18.3484 9.96936 19.1519 9.19929 19.7668 8.58168C20.0721 8.27494 20.3459 7.99083 20.5535 7.758C20.6555 7.64356 20.7594 7.52149 20.8477 7.40365C20.8915 7.3453 20.9462 7.26839 20.9986 7.18028C21.0361 7.11718 21.1407 6.93783 21.1978 6.69456L18.2771 6.00945C18.3267 5.79785 18.4122 5.66009 18.4195 5.64787C18.4416 5.61064 18.4551 5.5939 18.4472 5.60438C18.4323 5.62421 18.3918 5.67445 18.3139 5.76195C18.1614 5.93299 17.9332 6.17126 17.6407 6.46514C17.0596 7.04879 16.2836 7.79305 15.489 8.54346C13.9539 9.99319 12.2517 11.555 12.0438 11.7709L14.205 13.8516ZM21.1978 6.69456C21.251 6.46767 21.2619 6.20143 21.2236 5.943C21.1855 5.68549 21.0622 5.19754 20.6223 4.80654L18.6293 7.04884C18.3297 6.78258 18.2697 6.4751 18.256 6.38272C18.2468 6.32034 18.2454 6.26685 18.247 6.22242C18.2482 6.18906 18.2525 6.1142 18.2771 6.00945L21.1978 6.69456ZM20.6223 4.80654C20.1881 4.4206 19.6972 4.34655 19.3925 4.34416C19.1088 4.34195 18.8624 4.40187 18.7969 4.41674L19.4609 7.34233C19.5448 7.32328 19.4767 7.34491 19.369 7.34407C19.2402 7.34307 18.9232 7.31006 18.6293 7.04884L20.6223 4.80654ZM18.7969 4.41674C18.5554 4.47155 18.3517 4.58769 18.3512 4.58792C18.2822 4.6244 18.2082 4.66694 18.1369 4.70919C17.9914 4.79536 17.8011 4.9135 17.5726 5.05869C17.1127 5.35089 16.4578 5.77803 15.612 6.33702C13.9186 7.45635 11.4358 9.1204 8.16629 11.3274L9.84476 13.8139C13.1123 11.6083 15.5853 9.95081 17.2662 8.83975C18.1077 8.28355 18.7447 7.86829 19.1814 7.59087C19.4011 7.45125 19.5604 7.35278 19.6655 7.29054C19.7194 7.25858 19.7461 7.24396 19.7529 7.24033C19.8284 7.20045 19.6759 7.29353 19.4609 7.34233L18.7969 4.41674ZM8.15642 11.3341C7.33631 11.8973 6.77777 12.0398 6.43522 12.0324L6.37042 15.0317C7.58249 15.0579 8.75909 14.5595 9.85463 13.8072L8.15642 11.3341ZM6.43522 12.0324C6.18886 12.0271 5.70404 11.9445 5.04049 11.7781C4.41175 11.6205 3.72798 11.4152 3.13583 11.2227L2.20841 14.0757C2.84166 14.2816 3.59477 14.5085 4.31081 14.688C4.99202 14.8588 5.75985 15.0185 6.37042 15.0317L6.43522 12.0324ZM3.13583 11.2227C2.93981 11.159 2.74957 11.0993 2.57486 11.0443C2.39724 10.9885 2.23702 10.938 2.08711 10.8886C1.77807 10.7869 1.56949 10.7081 1.42663 10.6389C1.26982 10.5629 1.31089 10.5538 1.39212 10.6536C1.52111 10.8122 1.59352 11.0471 1.56693 11.2592L-1.40977 10.886C-1.48837 11.513 -1.30565 12.0913 -0.934963 12.547C-0.612045 12.9439 -0.197897 13.1854 0.118807 13.3388C0.715447 13.6278 1.57345 13.8693 2.20841 14.0757L3.13583 11.2227ZM1.56693 11.2592C1.54122 11.4642 1.45976 11.594 1.4248 11.6411C1.39325 11.6835 1.38951 11.6735 1.4599 11.6212C1.60729 11.5118 1.9039 11.345 2.41831 11.1405L1.30975 8.35281C0.688039 8.60004 0.119015 8.88022 -0.328747 9.21275C-0.737362 9.5162 -1.30581 10.0567 -1.40977 10.886L1.56693 11.2592Z" fill="#5A5A5A" mask="url(#path-1-inside-1_206_39)"/>
</svg>
