<svg width="25" height="21" viewBox="0 0 25 21" fill="none" xmlns="http://www.w3.org/2000/svg">
<path fill-rule="evenodd" clip-rule="evenodd" d="M2.18466 9.2624C8.74387 6.40466 13.1177 4.52067 15.3062 3.61041C21.5546 1.01146 22.853 0.559989 23.6993 0.545081C23.8854 0.541802 24.3016 0.58793 24.5712 0.806673C24.7988 0.991376 24.8614 1.24088 24.8914 1.416C24.9214 1.59112 24.9587 1.99004 24.929 2.30175C24.5904 5.85953 23.1253 14.4933 22.3799 18.4781C22.0645 20.1642 21.4434 20.7295 20.8422 20.7849C19.5356 20.9051 18.5434 19.9214 17.2779 19.0918C15.2976 17.7937 14.1789 16.9856 12.2566 15.7189C10.0352 14.255 11.4753 13.4504 12.7413 12.1355C13.0726 11.7914 18.8296 6.55496 18.941 6.07993C18.9549 6.02052 18.9679 5.79907 18.8363 5.68213C18.7047 5.5652 18.5106 5.60519 18.3704 5.63699C18.1718 5.68207 15.0083 7.77305 8.87981 11.9099C7.98185 12.5265 7.16851 12.827 6.43978 12.8112C5.63641 12.7939 4.09106 12.357 2.94225 11.9836C1.53318 11.5255 0.413285 11.2834 0.510802 10.5055C0.561596 10.1003 1.11955 9.68596 2.18466 9.2624Z" fill="#5A5A5A"/>
</svg>
